<?xml version="1.0" encoding="utf-8"?>
<!-- Generator: Adobe Illustrator 24.3.0, SVG Export Plug-In . SVG Version: 6.00 Build 0)  -->
<svg version="1.1" id="Layer_1" xmlns="http://www.w3.org/2000/svg" xmlns:xlink="http://www.w3.org/1999/xlink" x="0px" y="0px"
	 viewBox="0 0 262 50.6" style="enable-background:new 0 0 262 50.6;" xml:space="preserve">
<style type="text/css">
	.st0{fill:#FFFFFF;}
</style>
<path class="st0" d="M25.2,50.6c-14,0-25.3-11.4-25.3-25.3S11.3,0,25.3,0c14,0,25.3,11.4,25.3,25.3c0,0,0,0,0,0
	c0,13.9-11.3,25.3-25.2,25.3C25.3,50.6,25.3,50.6,25.2,50.6z M25.4,46.4c11.6,0,21-9.5,20.9-21.1s-9.5-21-21.1-20.9
	s-21,9.5-20.9,21.1c0,0.1,0,0.1,0,0.2C4.5,37.1,13.9,46.4,25.4,46.4z"/>
<path class="st0" d="M66.2,11.6c1.9,0,3.7,0,5.4,0c0.8,0,0.8,0.5,0.8,1c1,5.2,1.9,10.4,2.8,15.7c0.1,1,0.4,2,0.8,3l4.4-19.6h4.2
	c1.5,6.6,2.9,13.1,4.4,20c1.3-6.9,2.5-13.4,3.8-20h5.5c-0.1,0.6-0.2,1.3-0.3,1.9c-1.9,8-3.8,16-5.7,24c-0.2,0.9-0.5,1.3-1.5,1.2
	c-1.3-0.1-3,0.4-3.8-0.2s-0.8-2.4-1.1-3.7c-1.2-4.8-2.3-9.6-3.6-14.4c-1.4,6.1-2.8,12.2-4.3,18.2h-5.2
	C70.5,29.7,68.3,20.7,66.2,11.6z"/>
<path class="st0" d="M106.9,38.6h-5.7v-27h5.6v8.8c0.8-0.2,1.5-0.4,2.2-0.5c2.3-0.5,4.7-0.3,6.8,0.5c2,0.7,3.3,2.5,3.3,4.6
	c0.1,4.4,0,8.8,0,13.2c0,0.1-0.1,0.3-0.1,0.4h-5.6V26.3c0-2.5-1-3.5-3.5-3.5c-0.3,0-0.6,0-0.8,0c-2.1,0.2-2.2,0.3-2.2,2.3
	L106.9,38.6L106.9,38.6z"/>
<path class="st0" d="M175.8,38.6v-1.3c0-7.7,0-15.5,0-23.3c0-0.9,0.2-1.4,1.1-1.6c3.9-1.2,8-1.3,12-0.4c3.5,0.9,5.6,3.2,5.8,6.3
	c0.5,3.6-1.9,7-5.6,7.7c-2,0.4-4.1,0.6-6.1,0.7c-0.4,0-0.8,0-1.2,0v11.8H175.8z M181.8,23.5c1.5,0.4,3.2,0.3,4.7-0.2
	c1.1-0.3,1.9-1.2,2.1-2.3c0.2-1.3,0.2-2.6,0-3.9c-0.2-1.1-1-2-2.1-2.2c-1.3-0.2-2.5-0.2-3.8-0.2c-0.3,0.1-0.6,0.3-0.8,0.7
	C181.8,18.1,181.8,20.8,181.8,23.5L181.8,23.5z"/>
<path class="st0" d="M246.7,38.6h-5.8v-2.2c0-3.4,0-6.9,0-10.3c0-2.1-0.9-3.1-3-3.3h-0.1c-3.1-0.3-3.4,0-3.4,3c0,3.8,0,7.6,0,11.4
	v1.4h-5.7c0-0.4-0.1-0.7-0.1-1.1c0-5.2,0-10.4,0-15.6c0-0.8,0.2-1.1,1-1.4c3.9-1.1,8-1.4,12-0.6c3.7,0.7,5.2,2.6,5.2,6.3L246.7,38.6
	z"/>
<path class="st0" d="M215.6,29.9c0,3.1-1.1,6.3-4.6,8c-3.5,1.9-7.7,1.8-11-0.4c-3.6-2.3-4.3-6-3.8-9.9c0.7-5.4,4.7-8.5,10.4-8.1
	S215.6,23.5,215.6,29.9z M201.9,29.3h0.1c0.1,0.8,0.1,1.6,0.2,2.4c0.1,0.5,0.2,1,0.4,1.5c0.4,1.5,1.8,2.5,3.4,2.4
	c1.5,0,2.8-1,3.2-2.4c0.9-2.6,0.9-5.4-0.1-8c-0.5-1.8-2.4-2.8-4.2-2.3c-1.1,0.3-1.9,1.2-2.3,2.3C202.3,26.5,202.1,27.9,201.9,29.3z"
	/>
<path class="st0" d="M165.2,29.5l-13.1,1.6c-0.1,2.3,1.8,4.3,4.1,4.4c0.1,0,0.1,0,0.2,0c2.3,0,4.6-0.3,7-0.5l1,2.8
	c-0.3,0.2-0.6,0.3-0.9,0.4c-2.8,1-5.9,1.3-8.9,0.9c-5.5-0.7-8.8-4.8-8.4-10.5c0.6-7.4,7.9-11.5,14.6-8
	C163.8,22.1,165.4,25.4,165.2,29.5z M151.7,28.6c2.5-0.3,5-0.7,7.5-1c0.2-0.1,0.4-0.3,0.5-0.5c0.2-1.9-0.9-3.7-2.7-4.3
	C153.8,21.8,150.9,24.8,151.7,28.6L151.7,28.6z"/>
<path class="st0" d="M144.3,35.6v1.5c0,1.8-0.1,1.8-1.8,2c-0.8,0.1-1.7,0.1-2.5,0c-3.2-0.4-5-2.3-5-5.6c0-2.9,0-5.8,0-8.7v-1.4h-2.6
	V20h2.6c0-1.1,0-2.2,0-3.2c0-0.6,0.1-0.9,0.8-1c1.6-0.3,3.2-0.7,4.9-1.1V20h3.6v3.2h-3.5v9.1C140.7,35.2,141.3,35.8,144.3,35.6z"/>
<path class="st0" d="M250,20h2.5c0-1,0-2,0-3c0-0.7,0.1-1.1,0.9-1.2c1.6-0.3,3.1-0.7,4.8-1.1V20h3.6v3.2h-3.2
	c-0.2,0.2-0.3,0.2-0.3,0.3c0,3.4-0.1,6.8,0,10.2c0,1.1,0.9,2,2,2c0.1,0,0.2,0,0.3,0c0.4,0,0.8-0.1,1.2-0.1c0,0.4,0.1,0.8,0.1,1.1
	c0,2.2-0.1,2.4-2.4,2.4c-1,0-2-0.1-3-0.3c-2.4-0.5-4.1-2.6-4-5.1c0-3,0-6,0-9v-1.4l-2.6-0.1V20z"/>
<path class="st0" d="M123.4,20h5.6v18.5h-5.6V20z"/>
<path class="st0" d="M218.8,20h5.6v18.5h-5.6L218.8,20z"/>
<path class="st0" d="M221.8,11.5c1.7,0.1,2.9,1.6,2.8,3.2c-0.1,1.7-1.6,2.9-3.2,2.8c-1.6-0.1-2.8-1.5-2.8-3.1
	C218.6,12.7,220,11.4,221.8,11.5C221.7,11.5,221.7,11.5,221.8,11.5z"/>
<path class="st0" d="M129.1,14.6c0,1.7-1.4,3-3.1,2.9s-3-1.4-2.9-3.1c0-1.6,1.4-2.9,3-2.9C127.8,11.5,129.1,12.8,129.1,14.6
	C129.1,14.5,129.1,14.5,129.1,14.6z"/>
<path class="st0" d="M30.8,26c0.9-3.1,1.7-6.2,2.6-9.3c0.7-2.3,0.1-1.9,2.5-1.9c1.1,0,2.1,0,3.4,0l-6,21.1c-2.8,0.3-2.8,0.3-3.7-2.2
	c-1.3-3.6-2.6-7.1-3.8-10.7c-0.1-0.3-0.2-0.6-0.5-1.2c-0.6,1.6-1.1,2.9-1.5,4.3c-1.1,3-2.2,6-3.2,9c-0.5,1.4-1.5,0.8-2.4,0.9
	s-1-0.3-1.2-1c-1.9-6.6-3.8-13.2-5.7-20.1c1.7,0,3.4,0,5,0c0.2,0,0.5,0.6,0.7,1c0.9,3,1.7,5.9,2.5,8.9c0.1,0.5,0.3,0.9,0.5,1.7
	c0.4-1,0.6-1.6,0.9-2.3c1-2.8,2.1-5.6,3-8.4c0.1-0.6,0.8-1,1.4-0.9c0.7,0,1.2,0.1,1.5,0.9c1.2,3.5,2.5,6.9,3.7,10.4L30.8,26z"/>
</svg>
