<svg id="Layer_1" data-name="Layer 1" xmlns="http://www.w3.org/2000/svg" viewBox="0 0 261.95 50.63"><defs><style>.cls-1{fill:#052a5e;}</style></defs><path class="cls-1" d="M29.91,55.45A25.32,25.32,0,1,1,55.25,30.16,25.25,25.25,0,0,1,29.91,55.45Zm.15-4.27A21,21,0,1,0,9,30.42,21.08,21.08,0,0,0,30.06,51.18Z" transform="translate(-4.68 -4.81)"/><path class="cls-1" d="M70.83,16.38c1.91,0,3.67,0,5.42,0,.8,0,.75.53.84,1q1.43,7.83,2.85,15.68a14.28,14.28,0,0,0,.77,3l4.37-19.6h4.23c1.46,6.56,2.91,13.1,4.45,20,1.29-6.89,2.51-13.43,3.75-20H103c-.12.65-.2,1.26-.35,1.86-1.9,8-3.83,16-5.72,24-.2.87-.52,1.28-1.49,1.2-1.3-.11-3,.41-3.84-.23s-.82-2.38-1.13-3.65c-1.15-4.79-2.29-9.6-3.62-14.43q-2.13,9.12-4.27,18.24H77.34C75.19,34.49,73,25.54,70.83,16.38Z" transform="translate(-4.68 -4.81)"/><path class="cls-1" d="M111.57,43.44H105.9v-27h5.61v8.83c.85-.21,1.51-.41,2.2-.54a11.53,11.53,0,0,1,6.82.52,4.93,4.93,0,0,1,3.28,4.61c.07,4.4,0,8.8,0,13.2a1.77,1.77,0,0,1-.1.4h-5.63V31.09c0-2.45-1-3.5-3.48-3.54a7.86,7.86,0,0,0-.84,0c-2.07.18-2.2.32-2.2,2.34V43.44Z" transform="translate(-4.68 -4.81)"/><path class="cls-1" d="M180.52,43.39V42.13c0-7.75,0-15.51,0-23.26,0-.9.21-1.36,1.13-1.6a23.3,23.3,0,0,1,12-.4c3.51.88,5.58,3.23,5.8,6.33a6.8,6.8,0,0,1-5.55,7.68,40.61,40.61,0,0,1-6.15.68,8.3,8.3,0,0,1-1.17,0V43.39Zm6-15.07a8.33,8.33,0,0,0,4.68-.21,2.9,2.9,0,0,0,2.06-2.3,14.9,14.9,0,0,0,0-3.89,2.58,2.58,0,0,0-2.14-2.18,19.15,19.15,0,0,0-3.79-.18,1.05,1.05,0,0,0-.75.68C186.47,22.91,186.49,25.58,186.49,28.32Z" transform="translate(-4.68 -4.81)"/><path class="cls-1" d="M251.37,43.42h-5.75V41.24c0-3.43,0-6.87,0-10.31,0-2.06-.93-3.08-3-3.32h-.12c-3.06-.29-3.42,0-3.42,3,0,3.8,0,7.59,0,11.39V43.4h-5.74c0-.39-.06-.74-.06-1.09,0-5.19,0-10.38,0-15.58,0-.75.19-1.14,1-1.35a26,26,0,0,1,12-.63c3.68.73,5.17,2.6,5.17,6.33Z" transform="translate(-4.68 -4.81)"/><path class="cls-1" d="M220.32,34.73c0,3.07-1.11,6.3-4.56,8a10.62,10.62,0,0,1-11-.39c-3.59-2.3-4.32-6-3.82-9.94.69-5.43,4.71-8.47,10.42-8.09S220.31,28.33,220.32,34.73Zm-13.77-.61.13,0c.07.8.1,1.6.22,2.38a6.54,6.54,0,0,0,.41,1.5,3.37,3.37,0,0,0,3.35,2.41A3.24,3.24,0,0,0,213.87,38a12.19,12.19,0,0,0-.05-8,3.37,3.37,0,0,0-6.46,0A36.35,36.35,0,0,0,206.55,34.12Z" transform="translate(-4.68 -4.81)"/><path class="cls-1" d="M169.84,34.31l-13.08,1.62a4.25,4.25,0,0,0,4.35,4.37c2.28.05,4.57-.33,7-.53l1,2.77c-.33.15-.59.31-.88.41a19.62,19.62,0,0,1-8.86.89c-5.54-.65-8.82-4.8-8.39-10.46.57-7.42,7.92-11.46,14.57-8C168.48,26.86,170.1,30.22,169.84,34.31Zm-13.49-.9c2.51-.33,5-.65,7.54-1a.79.79,0,0,0,.52-.5,4.11,4.11,0,0,0-2.66-4.33C158.43,26.63,155.58,29.63,156.35,33.41Z" transform="translate(-4.68 -4.81)"/><path class="cls-1" d="M149,40.38v1.51c0,1.76-.05,1.84-1.84,2a13.15,13.15,0,0,1-2.51,0c-3.25-.36-5-2.34-5-5.6,0-2.92,0-5.84,0-8.75V28.1h-2.58V24.82h2.58c0-1.14,0-2.16,0-3.18,0-.62.15-.92.81-1.05,1.6-.32,3.18-.73,4.91-1.13v5.31h3.58V28h-3.54v9.11C145.39,40.05,146,40.6,149,40.38Z" transform="translate(-4.68 -4.81)"/><path class="cls-1" d="M254.68,24.81h2.55c0-1,0-2,0-3,0-.7.12-1.08.9-1.23,1.57-.29,3.11-.7,4.83-1.11v5.31h3.61V28h-3.21c-.16.19-.26.24-.26.3,0,3.39-.09,6.79,0,10.18a2,2,0,0,0,2.27,2c.39,0,.78-.08,1.23-.13,0,.41.06.76.06,1.12,0,2.24-.1,2.4-2.4,2.44a11.83,11.83,0,0,1-3-.27,4.93,4.93,0,0,1-4-5.1c0-3,0-6,0-9V28.15L254.68,28Z" transform="translate(-4.68 -4.81)"/><path class="cls-1" d="M128.08,24.85h5.58V43.39h-5.58Z" transform="translate(-4.68 -4.81)"/><path class="cls-1" d="M223.44,24.85H229V43.38h-5.59Z" transform="translate(-4.68 -4.81)"/><path class="cls-1" d="M226.43,16.31a3,3,0,1,1-3.23,2.85A3,3,0,0,1,226.43,16.31Z" transform="translate(-4.68 -4.81)"/><path class="cls-1" d="M133.78,19.38a3,3,0,1,1-3-3.07A3,3,0,0,1,133.78,19.38Z" transform="translate(-4.68 -4.81)"/><path class="cls-1" d="M35.44,30.8c.88-3.1,1.72-6.22,2.64-9.31.7-2.33.1-1.88,2.49-1.93,1.07,0,2.14,0,3.38,0L38,40.62c-2.84.32-2.84.32-3.74-2.2C33,34.85,31.7,31.28,30.41,27.71c-.11-.33-.25-.64-.48-1.2-.57,1.57-1.06,2.91-1.54,4.26-1.08,3-2.23,6-3.21,9-.47,1.44-1.53.75-2.35.91s-1-.34-1.17-1C19.8,33.07,17.91,26.43,16,19.57c1.73,0,3.35,0,5,.05.24,0,.55.6.66,1,.86,2.95,1.68,5.92,2.52,8.88.12.45.26.89.5,1.7.37-1,.63-1.61.86-2.26,1-2.81,2.08-5.62,3.05-8.45a1.21,1.21,0,0,1,1.41-.92c.74,0,1.22.1,1.51.94,1.2,3.47,2.49,6.9,3.74,10.35Z" transform="translate(-4.68 -4.81)"/></svg>